<mxfile host="Electron" modified="2024-04-28T15:11:15.044Z" agent="Mozilla/5.0 (Windows NT 10.0; Win64; x64) AppleWebKit/537.36 (KHTML, like Gecko) draw.io/24.2.5 Chrome/120.0.6099.109 Electron/28.1.0 Safari/537.36" etag="AgdvbpaAaZxTRtqGptZO" version="24.2.5" type="device">
  <diagram name="Сторінка-1" id="2e0NgMLndU3RrRTZU21I">
    <mxGraphModel dx="1290" dy="629" grid="1" gridSize="10" guides="1" tooltips="1" connect="1" arrows="1" fold="1" page="1" pageScale="1" pageWidth="827" pageHeight="1169" math="0" shadow="0">
      <root>
        <mxCell id="0" />
        <mxCell id="1" parent="0" />
        <mxCell id="0dm28g9hAGWohbUjK7uX-1" value="" style="ellipse;html=1;shape=startState;fillColor=#000000;strokeColor=#ff0000;" parent="1" vertex="1">
          <mxGeometry x="85" y="10" width="30" height="30" as="geometry" />
        </mxCell>
        <mxCell id="0dm28g9hAGWohbUjK7uX-2" value="" style="edgeStyle=orthogonalEdgeStyle;html=1;verticalAlign=bottom;endArrow=open;endSize=8;strokeColor=#ff0000;rounded=0;" parent="1" source="0dm28g9hAGWohbUjK7uX-1" edge="1">
          <mxGeometry relative="1" as="geometry">
            <mxPoint x="100" y="100" as="targetPoint" />
          </mxGeometry>
        </mxCell>
        <mxCell id="0dm28g9hAGWohbUjK7uX-3" value="Вибір предмета" style="rounded=1;whiteSpace=wrap;html=1;arcSize=40;fontColor=#000000;fillColor=#ffffc0;strokeColor=#ff0000;" parent="1" vertex="1">
          <mxGeometry x="40" y="100" width="120" height="40" as="geometry" />
        </mxCell>
        <mxCell id="0dm28g9hAGWohbUjK7uX-4" value="" style="edgeStyle=orthogonalEdgeStyle;html=1;verticalAlign=bottom;endArrow=open;endSize=8;strokeColor=#ff0000;rounded=0;" parent="1" source="0dm28g9hAGWohbUjK7uX-3" edge="1">
          <mxGeometry relative="1" as="geometry">
            <mxPoint x="100" y="200" as="targetPoint" />
          </mxGeometry>
        </mxCell>
        <mxCell id="0dm28g9hAGWohbUjK7uX-5" value="Вибір розділу" style="rounded=1;whiteSpace=wrap;html=1;arcSize=40;fontColor=#000000;fillColor=#ffffc0;strokeColor=#ff0000;" parent="1" vertex="1">
          <mxGeometry x="40" y="200" width="120" height="40" as="geometry" />
        </mxCell>
        <mxCell id="0dm28g9hAGWohbUjK7uX-6" value="" style="edgeStyle=orthogonalEdgeStyle;html=1;verticalAlign=bottom;endArrow=open;endSize=8;strokeColor=#ff0000;rounded=0;" parent="1" source="0dm28g9hAGWohbUjK7uX-5" edge="1">
          <mxGeometry relative="1" as="geometry">
            <mxPoint x="100" y="300" as="targetPoint" />
          </mxGeometry>
        </mxCell>
        <mxCell id="0dm28g9hAGWohbUjK7uX-9" value="Вхід на платформу" style="text;whiteSpace=wrap;html=1;" parent="1" vertex="1">
          <mxGeometry x="115" y="40" width="80" height="40" as="geometry" />
        </mxCell>
        <mxCell id="0dm28g9hAGWohbUjK7uX-11" value="Перегляд теоретичних матеріалів" style="rounded=1;whiteSpace=wrap;html=1;arcSize=40;fontColor=#000000;fillColor=#ffffc0;strokeColor=#ff0000;" parent="1" vertex="1">
          <mxGeometry x="240" y="320" width="120" height="40" as="geometry" />
        </mxCell>
        <mxCell id="0dm28g9hAGWohbUjK7uX-12" value="" style="edgeStyle=orthogonalEdgeStyle;html=1;verticalAlign=bottom;endArrow=open;endSize=8;strokeColor=#ff0000;rounded=0;" parent="1" source="0dm28g9hAGWohbUjK7uX-11" edge="1">
          <mxGeometry relative="1" as="geometry">
            <mxPoint x="420" y="340" as="targetPoint" />
          </mxGeometry>
        </mxCell>
        <mxCell id="0dm28g9hAGWohbUjK7uX-13" value="Виконання практичних завдань" style="rounded=1;whiteSpace=wrap;html=1;arcSize=40;fontColor=#000000;fillColor=#ffffc0;strokeColor=#ff0000;" parent="1" vertex="1">
          <mxGeometry x="40" y="450" width="120" height="40" as="geometry" />
        </mxCell>
        <mxCell id="0dm28g9hAGWohbUjK7uX-14" value="Проходження тестів" style="rounded=1;whiteSpace=wrap;html=1;arcSize=40;fontColor=#000000;fillColor=#ffffc0;strokeColor=#ff0000;" parent="1" vertex="1">
          <mxGeometry x="240" y="450" width="120" height="40" as="geometry" />
        </mxCell>
        <mxCell id="0dm28g9hAGWohbUjK7uX-17" value="Аналіз результатів тестів" style="rounded=1;whiteSpace=wrap;html=1;arcSize=40;fontColor=#000000;fillColor=#ffffc0;strokeColor=#ff0000;" parent="1" vertex="1">
          <mxGeometry x="440" y="450" width="120" height="40" as="geometry" />
        </mxCell>
        <mxCell id="0dm28g9hAGWohbUjK7uX-20" value="Отримання рекомендацій" style="rounded=1;whiteSpace=wrap;html=1;arcSize=40;fontColor=#000000;fillColor=#ffffc0;strokeColor=#ff0000;" parent="1" vertex="1">
          <mxGeometry x="420" y="320" width="120" height="40" as="geometry" />
        </mxCell>
        <mxCell id="0dm28g9hAGWohbUjK7uX-22" value="Спілкування з іншими користувачами та викладачами" style="rounded=1;whiteSpace=wrap;html=1;arcSize=40;fontColor=#000000;fillColor=#ffffc0;strokeColor=#ff0000;" parent="1" vertex="1">
          <mxGeometry x="620" y="310" width="120" height="60" as="geometry" />
        </mxCell>
        <mxCell id="0dm28g9hAGWohbUjK7uX-23" value="" style="edgeStyle=orthogonalEdgeStyle;html=1;verticalAlign=bottom;endArrow=open;endSize=8;strokeColor=#ff0000;rounded=0;" parent="1" source="0dm28g9hAGWohbUjK7uX-22" edge="1">
          <mxGeometry relative="1" as="geometry">
            <mxPoint x="820" y="340" as="targetPoint" />
          </mxGeometry>
        </mxCell>
        <mxCell id="0dm28g9hAGWohbUjK7uX-24" value="" style="ellipse;html=1;shape=endState;fillColor=#000000;strokeColor=#ff0000;" parent="1" vertex="1">
          <mxGeometry x="820" y="325" width="30" height="30" as="geometry" />
        </mxCell>
        <mxCell id="0dm28g9hAGWohbUjK7uX-26" value="Вихід з платформи" style="text;whiteSpace=wrap;html=1;" parent="1" vertex="1">
          <mxGeometry x="740" y="290" width="80" height="40" as="geometry" />
        </mxCell>
        <mxCell id="aCavUFNV93UajjdInTyW-1" value="Вибір типу навчального матеріалу" style="rhombus;whiteSpace=wrap;html=1;fontColor=#000000;fillColor=#ffffc0;strokeColor=#ff0000;" vertex="1" parent="1">
          <mxGeometry x="40" y="300" width="120" height="80" as="geometry" />
        </mxCell>
        <mxCell id="aCavUFNV93UajjdInTyW-2" value="no" style="edgeStyle=orthogonalEdgeStyle;html=1;align=left;verticalAlign=bottom;endArrow=open;endSize=8;strokeColor=#ff0000;rounded=0;" edge="1" source="aCavUFNV93UajjdInTyW-1" parent="1">
          <mxGeometry x="-1" relative="1" as="geometry">
            <mxPoint x="240" y="340" as="targetPoint" />
          </mxGeometry>
        </mxCell>
        <mxCell id="aCavUFNV93UajjdInTyW-3" value="yes" style="edgeStyle=orthogonalEdgeStyle;html=1;align=left;verticalAlign=top;endArrow=open;endSize=8;strokeColor=#ff0000;rounded=0;" edge="1" source="aCavUFNV93UajjdInTyW-1" parent="1">
          <mxGeometry x="-1" relative="1" as="geometry">
            <mxPoint x="100" y="450" as="targetPoint" />
          </mxGeometry>
        </mxCell>
        <mxCell id="aCavUFNV93UajjdInTyW-8" value="" style="edgeStyle=orthogonalEdgeStyle;html=1;verticalAlign=bottom;endArrow=open;endSize=8;strokeColor=#ff0000;rounded=0;" edge="1" parent="1">
          <mxGeometry relative="1" as="geometry">
            <mxPoint x="620" y="340" as="targetPoint" />
            <mxPoint x="540" y="339.5" as="sourcePoint" />
          </mxGeometry>
        </mxCell>
        <mxCell id="aCavUFNV93UajjdInTyW-9" value="" style="edgeStyle=orthogonalEdgeStyle;html=1;verticalAlign=bottom;endArrow=open;endSize=8;strokeColor=#ff0000;rounded=0;" edge="1" parent="1">
          <mxGeometry relative="1" as="geometry">
            <mxPoint x="440" y="470" as="targetPoint" />
            <mxPoint x="360" y="469.5" as="sourcePoint" />
          </mxGeometry>
        </mxCell>
        <mxCell id="aCavUFNV93UajjdInTyW-10" value="" style="edgeStyle=orthogonalEdgeStyle;html=1;verticalAlign=bottom;endArrow=open;endSize=8;strokeColor=#ff0000;rounded=0;" edge="1" parent="1">
          <mxGeometry relative="1" as="geometry">
            <mxPoint x="240" y="470" as="targetPoint" />
            <mxPoint x="160" y="469.5" as="sourcePoint" />
          </mxGeometry>
        </mxCell>
        <mxCell id="aCavUFNV93UajjdInTyW-11" value="" style="edgeStyle=orthogonalEdgeStyle;html=1;verticalAlign=bottom;endArrow=open;endSize=8;strokeColor=#ff0000;rounded=0;exitX=0.437;exitY=0.01;exitDx=0;exitDy=0;exitPerimeter=0;entryX=0.583;entryY=1;entryDx=0;entryDy=0;entryPerimeter=0;" edge="1" parent="1" source="0dm28g9hAGWohbUjK7uX-17" target="0dm28g9hAGWohbUjK7uX-20">
          <mxGeometry relative="1" as="geometry">
            <mxPoint x="650" y="370" as="targetPoint" />
            <mxPoint x="570" y="369.5" as="sourcePoint" />
          </mxGeometry>
        </mxCell>
      </root>
    </mxGraphModel>
  </diagram>
</mxfile>
